HIERARCHY
ROOT Hips
{
	OFFSET 0.000000 0.000000 0.000000 
	CHANNELS 6 Xposition Yposition Zposition Yrotation Zrotation Xrotation 
	JOINT Lumbar
	{
		OFFSET 0.000000 0.000000 0.000000 
		CHANNELS 3 Zrotation Xrotation Yrotation
		JOINT Neck
		{
			OFFSET 0.000000 0.445665 0.000000 
			CHANNELS 3 Zrotation Xrotation Yrotation
			End Site
			{
				OFFSET 0.000000 0.227535 0.000000 
			}
		}
		JOINT RightShoulder
		{
			OFFSET 0.019635 0.377685 0.194865 
			CHANNELS 3 Zrotation Xrotation Yrotation
			JOINT RightElbow
			{
				OFFSET 0.000000 -0.243375 0.000000 
				CHANNELS 2 Zrotation Yrotation
				JOINT RightWrist
				{
					OFFSET 0.000000 -0.264825 0.000000 
					CHANNELS 2 Zrotation Xrotation
					End Site
					{
						OFFSET 0.006600 -0.176220 0.000990 
					}
				}
			}
		}
		JOINT LeftShoulder
		{
			OFFSET 0.019635 0.377685 -0.194865 
			CHANNELS 3 Zrotation Xrotation Yrotation
			JOINT LeftElbow
			{
				OFFSET 0.000000 -0.243375 0.000000 
				CHANNELS 2 Zrotation Yrotation
				JOINT LeftWrist
				{
					OFFSET 0.000000 -0.264825 0.000000 
					CHANNELS 2 Zrotation Xrotation
					End Site
					{
						OFFSET 0.006600 -0.176220 -0.000990 
					}
				}
			}
		}
	}
	JOINT RightHip
	{
		OFFSET 0.052140 -0.069960 0.075570 
		CHANNELS 3 Zrotation Xrotation Yrotation
		JOINT RightKnee
		{
			OFFSET 0.000000 -0.402270 0.000000 
			CHANNELS 1 Zrotation
			JOINT RightAnkle
			{
				OFFSET 0.000000 -0.404085 0.000000 
				CHANNELS 3 Zrotation Xrotation Yrotation
				End Site
				{
					OFFSET 0.204105 -0.089430 0.008415 
				}
			}
		}
	}
	JOINT LeftHip
	{
		OFFSET 0.052140 -0.069960 -0.075570 
		CHANNELS 3 Zrotation Xrotation Yrotation
		JOINT LeftKnee
		{
			OFFSET 0.000000 -0.402270 0.000000 
			CHANNELS 1 Zrotation
			JOINT LeftAnkle
			{
				OFFSET 0.000000 -0.404085 0.000000 
				CHANNELS 3 Zrotation Xrotation Yrotation
				End Site
				{
					OFFSET 0.204105 -0.089430 -0.008415 
				}
			}
		}
	}
}
MOTION
Frames: 19
Frame Time: 0.02
0.06767 -0.00944 0.0106 -185.05043 -32.48407 -1.94279 36.51702 3.17765 5.24575 -9.09761 -2.77655 -0.82939 40.42924 -61.99419 40.38754 48.28783 84.39576 6.63066 -2.13952 -1.05755 57.97348 -3.90078 55.76094 -87.2522 11.37847 1.61547 38.27135 0.59607 -9.79263 -24.95318 -6.12724 -3.52448 -2.44535 53.508 9.02803 2.51162 -42.87027 -7.15519 2.39793 1.88132
0.06623 -0.00926 0.0106 -185.20297 -32.47957 -1.87814 36.30599 3.07962 5.53997 -9.03864 -3.14203 -0.82941 46.10082 -62.30384 45.00596 47.12096 84.96314 6.63203 -2.22116 0.84672 58.702 -5.54083 55.05908 -86.89566 11.38784 1.81279 38.15331 0.51479 -9.77101 -24.93916 -6.10638 -3.50619 -2.43295 54.12277 9.11918 1.64932 -42.87251 -7.21509 2.46753 1.92326
0.06434 -0.00886 0.01105 -185.35175 -32.56984 -1.76675 36.18565 2.93226 5.85153 -8.95645 -3.53161 -0.82941 52.27101 -62.2508 49.87504 46.09812 85.55877 6.8728 -2.40071 3.10909 59.36118 -7.35318 54.55886 -86.70277 11.33187 2.02315 38.12956 0.36867 -9.70173 -24.92497 -6.10591 -3.49191 -2.42532 54.68828 9.10403 0.62711 -42.27056 -7.29576 2.57839 1.98954
0.0626 -0.00859 0.01133 -185.49787 -32.61032 -1.6801 36.01708 2.80832 6.14738 -8.88375 -3.91109 -0.82942 58.15029 -62.30711 54.49723 44.98806 86.12196 7.02968 -2.53701 5.24919 60.03944 -9.11806 53.96533 -86.4224 11.31174 2.23795 38.05098 0.25627 -9.64035 -24.90947 -6.09592 -3.47779 -2.41662 55.26153 9.14603 -0.31032 -41.92051 -7.36475 2.66553 2.04183
0.06108 -0.00823 0.01145 -185.66205 -32.67475 -1.57944 35.87445 2.68073 6.47737 -8.81578 -4.28576 -0.82942 64.33729 -62.59313 59.7028 43.96841 86.77175 7.08106 -2.66658 7.23914 60.77748 -10.77068 53.3842 -86.18677 11.26467 2.41487 38.01702 0.12728 -9.63527 -24.8987 -6.08642 -3.45558 -2.40334 55.89811 9.15502 -1.30012 -41.67004 -7.44268 2.77269 2.10593
0.059 -0.00799 0.01201 -185.78888 -32.71527 -1.49727 35.70257 2.5489 6.74032 -8.73215 -4.67617 -0.82943 69.98499 -62.31722 63.74731 42.79904 87.24588 7.40769 -2.8337 9.61657 61.36989 -12.68845 52.82663 -85.89537 11.25956 2.66968 37.91641 0.01624 -9.50524 -24.87864 -6.08088 -3.45073 -2.40051 56.39134 9.20484 -2.21774 -41.07139 -7.50721 2.84844 2.1515
0.05558 -0.00811 0.01361 -185.80085 -32.64459 -1.46897 35.40484 2.41587 6.80908 -8.61339 -5.10983 -0.82946 74.05496 -60.56633 64.48603 41.13479 87.23458 8.45445 -3.08427 13.0054 61.59902 -15.32954 52.24137 -85.48028 11.37403 3.15953 37.58851 -0.02118 -9.00501 -24.83079 -6.08231 -3.49717 -2.42798 56.49023 9.40584 -2.90312 -39.60744 -7.52858 2.82574 2.139
0.0516 -0.00835 0.01567 -185.77746 -32.55094 -1.46221 35.07881 2.28027 6.81035 -8.47906 -5.55772 -0.82951 77.5531 -58.26536 64.05075 39.32377 87.04399 9.7667 -3.36882 16.76344 61.67865 -18.2229 51.67977 -84.9943 11.53513 3.72266 37.19451 -0.04005 -8.38713 -24.77407 -6.08697 -3.5602 -2.46536 56.44804 9.64864 -3.50846 -37.82268 -7.536 2.77042 2.10726
0.04782 -0.00854 0.01757 -185.77862 -32.48264 -1.45114 34.78129 2.14697 6.8456 -8.3505 -5.99554 -0.82955 81.28757 -56.22433 64.17498 37.60898 86.93057 10.94556 -3.63558 20.33134 61.81226 -20.97719 51.13433 -84.49503 11.68307 4.23631 36.84472 -0.07271 -7.84732 -24.72303 -6.08951 -3.61279 -2.49649 56.47717 9.86393 -4.14713 -36.21708 -7.55058 2.73123 2.08502
0.04426 -0.00871 0.01925 -185.74444 -32.35493 -1.41566 34.42183 2.00792 6.86794 -8.22734 -6.44915 -0.8296 85.1433 -54.1277 64.20039 35.77186 86.83581 12.18682 -3.91555 24.00809 62.00457 -23.84214 50.48197 -84.18668 11.79532 4.818 36.43875 -0.0845 -7.20285 -24.66524 -6.09532 -3.67761 -2.53506 56.47477 10.11228 -4.8069 -34.44841 -7.56246 2.68795 2.06041
0.04011 -0.00895 0.0215 -185.77478 -32.34391 -1.43631 34.18222 1.87996 6.90036 -8.08868 -6.87321 -0.82963 88.59919 -52.02208 64.1474 34.15625 86.65997 13.35765 -4.17494 27.53901 62.03741 -26.53264 50.05592 -83.47005 11.99322 5.27615 36.13236 -0.13515 -6.74798 -24.61914 -6.09507 -3.72102 -2.56055 56.50449 10.30209 -5.3983 -32.95265 -7.57635 2.64492 2.03587
0.03446 -0.00942 0.02513 -185.99858 -32.66405 -1.61091 34.29124 1.79133 6.98177 -7.91829 -7.20985 -0.82964 91.12726 -50.01865 64.18001 33.15853 86.29511 14.27163 -4.36671 30.59097 61.68813 -28.69091 50.24259 -81.57319 12.42167 5.36664 36.12201 -0.2918 -6.85463 -24.61042 -6.07503 -3.69989 -2.54637 56.66334 10.32871 -5.8486 -32.27753 -7.59935 2.61015 2.01602
0.02823 -0.00995 0.02932 -186.28748 -33.1015 -1.84081 34.51945 1.71275 7.07483 -7.73156 -7.51663 -0.82964 93.26279 -48.02847 64.17001 32.39388 85.85493 15.10408 -4.53605 33.47827 61.17959 -30.66146 50.65658 -79.28111 12.93381 5.33178 36.21323 -0.48898 -7.15451 -24.61358 -6.04914 -3.65685 -2.51887 56.85851 10.29386 -6.2271 -31.89305 -7.62465 2.57667 1.99686
0.02225 -0.01042 0.0333 -186.54203 -33.48235 -2.0427 34.68549 1.62444 7.15924 -7.54766 -7.83843 -0.82965 95.55221 -46.03893 64.16859 31.54097 85.45678 15.97073 -4.71744 36.43072 60.73039 -32.71024 50.96937 -77.21408 13.40468 5.35992 36.25372 -0.67109 -7.36033 -24.60897 -6.02726 -3.62475 -2.49821 57.03347 10.28201 -6.61885 -31.38631 -7.64882 2.54256 1.97737
0.01631 -0.01101 0.0371 -186.81477 -33.87562 -2.25701 34.88411 1.55758 7.25491 -7.38266 -8.15441 -0.82965 97.92745 -44.00155 64.17235 30.60747 85.02534 16.85805 -4.89436 39.43989 60.33191 -34.79963 51.27331 -74.94918 13.89167 5.3653 36.30941 -0.83842 -7.58902 -24.61265 -5.99966 -3.5892 -2.47462 57.21922 10.29248 -7.08849 -30.82744 -7.67322 2.50726 1.95715
0.01014 -0.01138 0.0414 -187.06644 -34.27205 -2.45887 35.0439 1.44874 7.33146 -7.17454 -8.47547 -0.82966 100.03558 -42.07452 64.16991 29.90034 84.6403 17.68042 -5.07214 42.28354 59.79073 -36.75429 51.65047 -73.00804 14.36325 5.38718 36.36074 -1.04647 -7.81669 -24.60377 -5.98271 -3.55529 -2.45376 57.39285 10.24123 -7.3814 -30.44929 -7.69741 2.4755 1.93904
0.00343 -0.01117 0.04688 -187.23621 -34.64085 -2.60821 35.06407 1.2196 7.34636 -6.85226 -8.81573 -0.82966 101.52468 -40.44935 64.17071 29.75159 84.4671 18.33333 -5.28116 44.73571 58.90516 -38.39942 52.16527 -72.01748 14.78148 5.48583 36.35541 -1.35622 -8.00228 -24.54227 -5.99504 -3.53217 -2.44429 57.52557 10.03557 -7.19033 -30.51155 -7.72457 2.45046 1.92512
-0.00349 -0.01074 0.05284 -187.384 -35.0102 -2.74399 35.04169 0.94838 7.34278 -6.48715 -9.16244 -0.82966 102.75667 -38.9376 64.17074 29.82552 84.33291 18.92401 -5.48776 47.01936 57.8802 -39.91026 52.74808 -71.37334 15.17938 5.6046 36.34609 -1.70574 -8.17948 -24.47058 -6.01859 -3.51113 -2.43783 57.64522 9.76975 -6.82647 -30.74501 -7.7508 2.42954 1.91363
-0.0103 -0.0104 0.05859 -187.54738 -35.38458 -2.88871 35.04117 0.69756 7.35232 -6.14104 -9.5076 -0.82967 104.09505 -37.37636 64.17053 29.8041 84.13767 19.54862 -5.67932 49.363 56.91286 -41.4714 53.3047 -70.59839 15.57987 5.71385 36.35201 -2.03775 -8.35565 -24.41339 -6.03795 -3.48861 -2.42959 57.7707 9.53038 -6.55139 -30.8936 -7.7748 2.40883 1.90216
